<svg xmlns="http://www.w3.org/2000/svg" viewBox="0 0 512 512" style=""><defs transform="matrix(1, 0, 0, 1, 0, 0)"></defs>.st0{fill:#FF9071;}
	.st1{fill:#00FF00;}<path d="M272.5,495.7L452,392.1c13.5-7.8,21.7-22.1,21.7-37.7V147.1c0-15.5-8.3-29.9-21.7-37.7L272.5,5.8
	C259-2,242.5-2,229,5.8L49.5,109.4c-13.5,7.8-21.7,22.1-21.7,37.7v207.3c0,15.5,8.3,29.9,21.7,37.7L229,495.7
	C242.5,503.5,259,503.5,272.5,495.7z" transform="matrix(0.5472412402716916, 0, 0, 0.5472412402716916, 126.21433235465562, 118.77926578644224)" fill="#020c1b" stroke="rgba(100, 255, 218,1)" stroke-width="35"></path>Fichier 71<path text="SF" fill="#64ffda" space="preserve" text-anchor="middle" offset="0.5" font-scale="contain" font-size="48" font-family="Open Sans" transform="matrix(2.674262727526419, 0, 0, 3.185868893943003, 263.69414677688985, 310.62171756846516)" data-fl-textpath="" d="M-1.8506250000000009-9.52L-1.8506250000000009-9.52Q-1.8506250000000009-4.88 -5.190625000000001-2.2Q-8.530625 0.47 -14.480625 0.47L-14.480625 0.47Q-19.970625 0.47 -24.190625-1.59L-24.190625-1.59L-24.190625-8.34Q-20.720625-6.8 -18.320625-6.16Q-15.910625-5.53 -13.920625-5.53L-13.920625-5.53Q-11.530625-5.53 -10.250625-6.45Q-8.980625-7.36 -8.980625-9.16L-8.980625-9.16Q-8.980625-10.17 -9.540624999999999-10.96Q-10.100625-11.74 -11.190625-12.47Q-12.280625-13.2 -15.630625-14.79L-15.630625-14.79Q-18.770625-16.27 -20.340625-17.63Q-21.910625-18.98 -22.850625-20.79Q-23.790625-22.59 -23.790625-25.01L-23.790625-25.01Q-23.790625-29.55 -20.710625-32.16Q-17.620625-34.76 -12.190625-34.76L-12.190625-34.76Q-9.510625000000001-34.76 -7.090624999999999-34.13Q-4.660625-33.49 -2.010625000000001-32.34L-2.010625000000001-32.34L-4.360624999999999-26.7Q-7.100625000000001-27.82 -8.890625-28.27Q-10.690625-28.71 -12.420625-28.71L-12.420625-28.71Q-14.480625-28.71 -15.590625-27.75Q-16.690625-26.79 -16.690625-25.24L-16.690625-25.24Q-16.690625-24.28 -16.240625-23.57Q-15.800625-22.85 -14.820625-22.18Q-13.850625-21.52 -10.220624999999998-19.78L-10.220624999999998-19.78Q-5.410625-17.48 -3.6306249999999984-15.18Q-1.8506250000000009-12.87 -1.8506250000000009-9.52ZM 11.506875-13.55L 11.506875 0L 4.356875 0L 4.356875-34.27L 23.996875-34.27L 23.996875-28.31L 11.506875-28.31L 11.506875-19.48L 23.136875-19.48L 23.136875-13.55L 11.506875-13.55Z" font-weight="700" font-style="normal"></path></svg>